name ./resultDataOpenSim/trcMotMarkerGrf/sub06/grf-04-07.mot
datacolumns 19
datarows 20
range 0.55200000 0.62800000
endheader

                time	     ground_force_vx	     ground_force_vy	     ground_force_vz	     ground_force_px	     ground_force_py	     ground_force_pz	   l_ground_force_vx	   l_ground_force_vy	   l_ground_force_vz	   l_ground_force_px	   l_ground_force_py	   l_ground_force_pz	     ground_torque_x	     ground_torque_y	     ground_torque_z	   l_ground_torque_x	   l_ground_torque_y	   l_ground_torque_z	
          0.55200000	         90.99488090	        525.85801857	        -26.34909051	         -0.85467170	          0.00000000	          0.08322980	          0.00000000	          0.00000000	          0.00000000	          0.00000000	          0.00000000	          0.00000000	          0.00000000	          0.51940662	          0.00000000	          0.00000000	          0.00000000	          0.00000000	
          0.55600000	         92.93454126	        536.16495888	        -26.39950756	         -0.85249972	          0.00000000	          0.08344160	          0.00000000	          0.00000000	          0.00000000	          0.00000000	          0.00000000	          0.00000000	          0.00000000	          0.53041478	          0.00000000	          0.00000000	          0.00000000	          0.00000000	
          0.56000000	         94.97087764	        546.72812835	        -26.48781887	         -0.85047569	          0.00000000	          0.08358326	          0.00000000	          0.00000000	          0.00000000	          0.00000000	          0.00000000	          0.00000000	          0.00000000	          0.56693942	          0.00000000	          0.00000000	          0.00000000	          0.00000000	
          0.56400000	         97.27085893	        557.49582023	        -26.72092924	         -0.84863311	          0.00000000	          0.08366061	          0.00000000	          0.00000000	          0.00000000	          0.00000000	          0.00000000	          0.00000000	          0.00000000	          0.62054158	          0.00000000	          0.00000000	          0.00000000	          0.00000000	
          0.56800000	        100.03044122	        568.38695427	        -27.13070919	         -0.84700073	          0.00000000	          0.08367967	          0.00000000	          0.00000000	          0.00000000	          0.00000000	          0.00000000	          0.00000000	          0.00000000	          0.68356576	          0.00000000	          0.00000000	          0.00000000	          0.00000000	
          0.57200000	        103.43710158	        579.29707669	        -27.67124431	         -0.84560333	          0.00000000	          0.08364718	          0.00000000	          0.00000000	          0.00000000	          0.00000000	          0.00000000	          0.00000000	          0.00000000	          0.75043512	          0.00000000	          0.00000000	          0.00000000	          0.00000000	
          0.57600000	        107.63379199	        590.10883293	        -28.23490856	         -0.84445826	          0.00000000	          0.08356792	          0.00000000	          0.00000000	          0.00000000	          0.00000000	          0.00000000	          0.00000000	          0.00000000	          0.81824724	          0.00000000	          0.00000000	          0.00000000	          0.00000000	
          0.58000000	        112.68853371	        600.69201205	        -28.68197821	         -0.84356191	          0.00000000	          0.08345021	          0.00000000	          0.00000000	          0.00000000	          0.00000000	          0.00000000	          0.00000000	          0.00000000	          0.88665972	          0.00000000	          0.00000000	          0.00000000	          0.00000000	
          0.58400000	        118.57480351	        610.89940130	        -28.87726417	         -0.84288393	          0.00000000	          0.08330637	          0.00000000	          0.00000000	          0.00000000	          0.00000000	          0.00000000	          0.00000000	          0.00000000	          0.95718590	          0.00000000	          0.00000000	          0.00000000	          0.00000000	
          0.58800000	        125.17405297	        620.58002457	        -28.72554818	         -0.84238351	          0.00000000	          0.08315167	          0.00000000	          0.00000000	          0.00000000	          0.00000000	          0.00000000	          0.00000000	          0.00000000	          1.03207139	          0.00000000	          0.00000000	          0.00000000	          0.00000000	
          0.59200000	        132.30445221	        629.60462371	        -28.19597541	         -0.84201426	          0.00000000	          0.08300413	          0.00000000	          0.00000000	          0.00000000	          0.00000000	          0.00000000	          0.00000000	          0.00000000	          1.11297059	          0.00000000	          0.00000000	          0.00000000	          0.00000000	
          0.59600000	        139.76090568	        637.88109544	        -27.33070811	         -0.84172510	          0.00000000	          0.08287214	          0.00000000	          0.00000000	          0.00000000	          0.00000000	          0.00000000	          0.00000000	          0.00000000	          1.19972258	          0.00000000	          0.00000000	          0.00000000	          0.00000000	
          0.60000000	        147.34681450	        645.35652690	        -26.23878098	         -0.84147466	          0.00000000	          0.08275509	          0.00000000	          0.00000000	          0.00000000	          0.00000000	          0.00000000	          0.00000000	          0.00000000	          1.28958120	          0.00000000	          0.00000000	          0.00000000	          0.00000000	
          0.60400000	        154.89107414	        652.01101222	        -25.07725439	         -0.84123283	          0.00000000	          0.08265311	          0.00000000	          0.00000000	          0.00000000	          0.00000000	          0.00000000	          0.00000000	          0.00000000	          1.37719410	          0.00000000	          0.00000000	          0.00000000	          0.00000000	
          0.60800000	        162.25668109	        657.84142823	        -24.02197383	         -0.84097104	          0.00000000	          0.08256187	          0.00000000	          0.00000000	          0.00000000	          0.00000000	          0.00000000	          0.00000000	          0.00000000	          1.45541141	          0.00000000	          0.00000000	          0.00000000	          0.00000000	
          0.61200000	        169.34879358	        662.84197291	        -23.23221214	         -0.84067430	          0.00000000	          0.08247510	          0.00000000	          0.00000000	          0.00000000	          0.00000000	          0.00000000	          0.00000000	          0.00000000	          1.51671898	          0.00000000	          0.00000000	          0.00000000	          0.00000000	
          0.61600000	        176.11947557	        666.99180047	        -22.81700830	         -0.84033644	          0.00000000	          0.08239182	          0.00000000	          0.00000000	          0.00000000	          0.00000000	          0.00000000	          0.00000000	          0.00000000	          1.55489326	          0.00000000	          0.00000000	          0.00000000	          0.00000000	
          0.62000000	        182.55938049	        670.24950367	        -22.81222966	         -0.83995222	          0.00000000	          0.08231553	          0.00000000	          0.00000000	          0.00000000	          0.00000000	          0.00000000	          0.00000000	          0.00000000	          1.56644275	          0.00000000	          0.00000000	          0.00000000	          0.00000000	
          0.62400000	        188.67726269	        672.55514646	        -23.17346712	         -0.83951669	          0.00000000	          0.08224773	          0.00000000	          0.00000000	          0.00000000	          0.00000000	          0.00000000	          0.00000000	          0.00000000	          1.55148105	          0.00000000	          0.00000000	          0.00000000	          0.00000000	
          0.62800000	        194.48133386	        673.84737962	        -23.78516754	         -0.83902654	          0.00000000	          0.08218709	          0.00000000	          0.00000000	          0.00000000	          0.00000000	          0.00000000	          0.00000000	          0.00000000	          1.51381778	          0.00000000	          0.00000000	          0.00000000	          0.00000000	
